<svg width="30" height="30" viewBox="0 0 30 30" fill="none" xmlns="http://www.w3.org/2000/svg">
<path fill-rule="evenodd" clip-rule="evenodd" d="M18.15 11.3325C15.5452 12.0776 12.7838 12.078 10.1787 11.3338C9.04193 12.5773 8.08665 13.9753 7.34124 15.4862C6.55374 17.11 6.19124 18.605 6.25749 19.7863C6.31999 20.86 6.72124 21.695 7.66999 22.3512C8.72999 23.085 10.7075 23.7488 14.195 23.7488C15.7012 23.7488 16.9225 23.6225 17.9087 23.4188L20.1162 25.3975C18.605 25.9388 16.6587 26.2475 14.195 26.2475C-0.78126 26.2475 3.21999 15.0238 8.58749 9.375L6.29499 6C6.75058 5.71077 7.22639 5.45469 7.71874 5.23375C7.97707 5.11458 8.25582 4.99583 8.55499 4.8775C10.0575 4.28625 12.055 3.75 14.195 3.75C16.2287 3.75 18.1212 4.23375 19.5825 4.79C19.6533 4.815 19.7225 4.84125 19.79 4.86875C20.8025 5.26875 21.59 5.69625 22.045 6L19.7375 9.375C21.8275 11.5113 23.73 14.5712 24.365 17.5H21.79C21.5825 16.7791 21.3106 16.0784 20.9775 15.4062C20.2397 13.9171 19.2874 12.5441 18.1512 11.3312M16.9137 9.0725C15.1021 9.49455 13.2177 9.49412 11.4062 9.07125L11.0787 8.58875C12.2262 8.69625 13.4212 8.64875 14.5425 8.325C15.6705 7.99653 16.8155 7.72947 17.9725 7.525L16.9137 9.0725ZM19.3762 6.1825C18.0662 6.1375 16.1625 6.26125 14.3912 6.46125C14.0375 6.50125 13.6687 6.57 13.2912 6.64C11.9387 6.89 10.4937 7.15875 9.37624 6.1825C10.0912 5.99875 12.0625 5.63375 14.2975 5.62375H14.3912C16.665 5.62375 18.6625 5.99625 19.3762 6.1825Z" fill="#068CEF"/>
<path d="M19.6375 23.29L20.8875 21.8937L22.0038 22.8938V18.75H23.8788V22.8925L24.9938 21.8925L26.2438 23.2888L22.9425 26.25L19.6375 23.29Z" fill="#068CEF"/>
<path fill-rule="evenodd" clip-rule="evenodd" d="M13.4375 22.5V21.8462C12.9767 21.7745 12.5439 21.5796 12.1848 21.2821C11.8257 20.9846 11.5537 20.5956 11.3975 20.1562C11.3541 20.0397 11.3343 19.9156 11.3394 19.7913C11.3444 19.667 11.3741 19.5449 11.4268 19.4322C11.4795 19.3195 11.5541 19.2184 11.6462 19.1349C11.7384 19.0513 11.8463 18.9869 11.9635 18.9454C12.0808 18.9039 12.2052 18.8862 12.3294 18.8933C12.4536 18.9004 12.5752 18.9321 12.687 18.9866C12.7988 19.0411 12.8987 19.1174 12.9807 19.2109C13.0628 19.3044 13.1254 19.4133 13.165 19.5312C13.215 19.6762 13.3125 19.7987 13.4375 19.8812V18.565C12.8287 18.4713 12.2735 18.1628 11.8725 17.6953C11.4714 17.2278 11.2509 16.6322 11.2509 16.0162C11.2509 15.4003 11.4714 14.8047 11.8725 14.3372C12.2735 13.8697 12.8287 13.5612 13.4375 13.4675V12.8125H15.3125V13.4675C16.2625 13.6113 17.0412 14.275 17.3525 15.1562C17.3959 15.2728 17.4156 15.3969 17.4106 15.5212C17.4055 15.6455 17.3758 15.7676 17.3231 15.8803C17.2704 15.993 17.1958 16.0941 17.1037 16.1776C17.0115 16.2612 16.9037 16.3256 16.7864 16.3671C16.6691 16.4086 16.5447 16.4263 16.4205 16.4192C16.2963 16.4121 16.1747 16.3804 16.0629 16.3259C15.9511 16.2714 15.8513 16.1951 15.7692 16.1016C15.6871 16.0081 15.6245 15.8992 15.585 15.7812C15.5345 15.6381 15.4388 15.5153 15.3125 15.4313V16.7475C15.9221 16.8403 16.4783 17.1485 16.8802 17.6162C17.2821 18.084 17.5031 18.6802 17.5031 19.2969C17.5031 19.9135 17.2821 20.5098 16.8802 20.9775C16.4783 21.4452 15.9221 21.7534 15.3125 21.8462V22.5H13.4375ZM15.625 19.2975C15.625 19.54 15.5 19.755 15.3125 19.8812V18.7125C15.5 18.8375 15.625 19.0537 15.625 19.2975ZM13.125 16.0137C13.125 15.7712 13.25 15.5562 13.4375 15.43V16.5988C13.3412 16.5348 13.2624 16.448 13.2078 16.3462C13.1533 16.2443 13.1248 16.1305 13.125 16.015" fill="#068CEF"/>
</svg>
