<svg width="30" height="30" viewBox="0 0 30 30" fill="none" xmlns="http://www.w3.org/2000/svg">
<g clip-path="url(#clip0_64_231)">
<path d="M29.3071 22.6059C28.8482 22.2834 23.8269 18.9446 23.2115 18.5687C22.9433 18.4046 22.6161 18.3244 22.2604 18.3244C21.8015 18.3244 21.2933 18.458 20.7974 18.7191C20.3141 18.9736 18.8502 19.8066 18.134 20.2158C17.503 19.7729 16.0209 18.6376 13.6855 16.2999C11.3648 13.9801 10.2191 12.4857 9.77336 11.8515C10.1816 11.1357 11.0137 9.67177 11.2668 9.1899C11.7463 8.28146 11.8007 7.37443 11.4116 6.76271C11.0465 6.18615 7.72117 1.14334 7.37804 0.668962C7.05508 0.221306 6.47523 -0.0205688 5.8462 -0.0205688C5.34979 -0.0205688 4.82339 0.129431 4.36682 0.447244C4.32276 0.47865 -0.0891432 3.6774 -0.0305494 5.49662C0.132136 10.6069 5.09804 16.6126 9.2352 20.7512C13.3724 24.8897 19.3785 29.8571 24.509 30.0207H24.5511C26.3474 30.0207 29.5049 25.6646 29.5354 25.6214C30.3637 24.4378 30.0618 23.1347 29.3071 22.6059ZM28.0119 24.5293C26.8227 26.1765 25.1343 27.8968 24.4734 28.143C20.9568 27.978 16.0223 24.8875 10.5609 19.4251C5.09992 13.9623 2.00992 9.03343 1.84679 5.52858C2.08398 4.86577 3.80426 3.16655 5.43645 1.98624C5.55739 1.9028 5.70645 1.85452 5.84567 1.85452C5.87658 1.85452 5.90236 1.85733 5.92255 1.86108C6.44989 2.62749 9.28067 6.91283 9.79442 7.71389C9.7963 7.79827 9.76773 8.01243 9.60692 8.31808C9.43583 8.64386 8.90286 9.59355 8.14489 10.922L7.5552 11.9556L8.23911 12.9296C8.74911 13.6539 9.96223 15.2284 12.359 17.6256C14.766 20.0336 16.3349 21.243 17.0563 21.7501L18.0304 22.434L19.064 21.8434C20.0657 21.271 21.276 20.5852 21.6698 20.3786C21.9857 20.2121 22.2018 20.199 22.2604 20.199C22.2698 20.199 22.2778 20.199 22.2843 20.2C23.002 20.6504 27.3801 23.5571 28.153 24.0873C28.1657 24.1623 28.154 24.3254 28.0119 24.5293ZM20.0361 11.1995L28.1 3.18469L28.0742 7.72734C28.0657 8.10656 28.3662 8.43609 28.7454 8.42721L29.2264 8.42675C29.6061 8.41737 29.9192 8.19237 29.9272 7.81362L29.9464 1.04581C29.9464 1.03927 29.9211 1.03459 29.9211 1.02802L29.9581 0.6849C29.9619 0.494587 29.9178 0.3249 29.794 0.203494C29.6731 0.0811792 29.503 0.00661865 29.3141 0.0118042L28.9714 0.019773C28.9648 0.019773 28.9597 0.0225854 28.9522 0.023523L22.2294 -0.00650635C21.8506 0.00196045 21.5375 0.315085 21.5286 0.694304L21.5277 1.17524C21.5853 1.62152 21.9359 1.88305 22.3152 1.87462L26.7463 1.88634L18.7105 9.87343C18.3443 10.2395 18.3443 10.8334 18.7105 11.1995C19.0766 11.5652 19.67 11.5652 20.0361 11.1995L20.0361 11.1995Z" fill="white"/>
</g>
<defs>
<clipPath id="clip0_64_231">
<rect width="30" height="30" fill="white"/>
</clipPath>
</defs>
</svg>
