<svg width="30" height="30" viewBox="0 0 30 30" fill="none" xmlns="http://www.w3.org/2000/svg">
<path fill-rule="evenodd" clip-rule="evenodd" d="M12.12 2.56072C12.3428 1.92742 12.757 1.37907 13.3052 0.991675C13.8535 0.604276 14.5087 0.397001 15.18 0.398572H16.5C17.235 0.396494 17.9481 0.648026 18.5191 1.11072C19.0902 1.57341 19.4841 2.21893 19.6344 2.93834C19.7847 3.65775 19.6823 4.407 19.3443 5.05963C19.0064 5.71226 18.4536 6.22832 17.7793 6.52072L14.9529 7.75714C14.8321 7.80873 14.7335 7.90132 14.6743 8.01857H18.3557C18.7109 8.01857 19.0516 8.15968 19.3028 8.41084C19.5539 8.66201 19.695 9.00266 19.695 9.35786C19.695 9.71306 19.5539 10.0537 19.3028 10.3049C19.0516 10.556 18.7109 10.6971 18.3557 10.6971H13.2772C13.1011 10.6974 12.9267 10.663 12.764 10.5958C12.6012 10.5286 12.4534 10.43 12.3288 10.3056C12.2042 10.1812 12.1053 10.0335 12.0379 9.87088C11.9705 9.70825 11.9357 9.53392 11.9357 9.35786V8.27572C11.9357 6.98572 12.6986 5.82 13.8793 5.30357L16.7079 4.06714C16.8192 4.02154 16.9109 3.93839 16.9672 3.83215C17.0236 3.7259 17.0409 3.60328 17.0162 3.4856C16.9915 3.36791 16.9263 3.2626 16.832 3.18798C16.7377 3.11336 16.6202 3.07414 16.5 3.07714H15.18C15.0627 3.07582 14.948 3.11156 14.8521 3.17929C14.7563 3.24701 14.6844 3.34325 14.6465 3.45429C14.5878 3.62017 14.497 3.77288 14.3793 3.90369C14.2616 4.0345 14.1193 4.14084 13.9605 4.21665C13.6399 4.36976 13.2715 4.38921 12.9365 4.27072C12.7706 4.21204 12.6179 4.12127 12.4871 4.00358C12.3562 3.88589 12.2499 3.74359 12.1741 3.5848C12.021 3.26412 12.0015 2.89574 12.12 2.56072ZM25.2 1.00714C25.4382 0.735842 25.7534 0.543543 26.1036 0.45586C26.4538 0.368178 26.8224 0.389274 27.1603 0.516339C27.4982 0.643404 27.7894 0.870406 27.995 1.16711C28.2007 1.46381 28.3111 1.81613 28.3115 2.17714V6.11786C28.653 6.1372 28.9742 6.28651 29.2091 6.53515C29.4441 6.78379 29.575 7.11291 29.575 7.455C29.575 7.79709 29.4441 8.12621 29.2091 8.37485C28.9742 8.62349 28.653 8.7728 28.3115 8.79214V9.36C28.3115 9.7152 28.1704 10.0559 27.9192 10.307C27.668 10.5582 27.3274 10.6993 26.9722 10.6993C26.617 10.6993 26.2763 10.5582 26.0252 10.307C25.774 10.0559 25.6329 9.7152 25.6329 9.36V8.79429H22.3543C22.0078 8.79489 21.6685 8.69546 21.3771 8.50793C21.0857 8.3204 20.8546 8.05274 20.7116 7.7371C20.5686 7.42145 20.5197 7.07124 20.5709 6.72852C20.6221 6.38579 20.7711 6.06512 21 5.805L25.2 1.00714ZM24.2893 6.11572L25.6329 4.57929V6.11572H24.2893ZM19.1036 29.5714C17.7887 29.7123 16.4652 29.3984 15.3536 28.6821C9.80517 24.9468 5.03176 20.1734 1.29645 14.625C0.594576 13.5025 0.298912 12.1732 0.458802 10.8589C0.618692 9.54471 1.22446 8.32508 2.17502 7.40357L2.98931 6.58929C3.35438 6.22811 3.8472 6.02554 4.36074 6.02554C4.87428 6.02554 5.36709 6.22811 5.73217 6.58929L9.03217 10.0179C9.39202 10.3793 9.59405 10.8685 9.59405 11.3786C9.59405 11.8886 9.39202 12.3779 9.03217 12.7393C8.67099 13.1044 8.46841 13.5972 8.46841 14.1107C8.46841 14.6243 8.67099 15.1171 9.03217 15.4821L14.4965 20.9464C14.8615 21.3076 15.3543 21.5102 15.8679 21.5102C16.3814 21.5102 16.8742 21.3076 17.2393 20.9464C17.6007 20.5866 18.09 20.3846 18.6 20.3846C19.1101 20.3846 19.5993 20.5866 19.9607 20.9464L23.3893 24.3536C23.7505 24.7186 23.9531 25.2115 23.9531 25.725C23.9531 26.2385 23.7505 26.7314 23.3893 27.0964L22.575 27.9107C21.6413 28.8442 20.4163 29.4302 19.1036 29.5714Z" fill="white"/>
</svg>
