<svg width="30" height="30" viewBox="0 0 30 30" fill="none" xmlns="http://www.w3.org/2000/svg">
<path d="M9.99938 17.1488C10.2572 17.5988 10.8338 17.7526 11.2791 17.4929L14.3784 15.9198C14.4291 15.9273 14.4797 15.9367 14.5331 15.9367C15.3113 15.9367 15.9394 15.3085 15.9394 14.5304L15.4706 7.14666C15.4706 6.89802 15.3719 6.65956 15.196 6.48375C15.0202 6.30793 14.7818 6.20916 14.5331 6.20916C14.2845 6.20916 14.046 6.30793 13.8702 6.48375C13.6944 6.65956 13.5956 6.89802 13.5956 7.14666L13.1597 14.0307L10.3434 15.8682C10.1287 15.9929 9.97216 16.1976 9.90819 16.4375C9.84421 16.6774 9.87802 16.9329 10.0022 17.1479L9.99938 17.1488ZM11.3081 8.94854C11.5235 8.82421 11.6806 8.61945 11.7449 8.37928C11.8093 8.13912 11.7756 7.88323 11.6513 7.66791C11.5587 7.5074 11.4207 7.37793 11.2546 7.29588C11.0885 7.21383 10.9018 7.18289 10.7181 7.20697C10.5344 7.23105 10.362 7.30908 10.2226 7.43117C10.0833 7.55326 9.98327 7.71393 9.93526 7.89287C9.88725 8.07181 9.89338 8.26096 9.95289 8.43641C10.0124 8.61186 10.1226 8.76572 10.2696 8.87852C10.4165 8.99133 10.5936 9.05801 10.7785 9.07014C10.9634 9.08227 11.1477 9.0393 11.3081 8.94666V8.94854ZM7.66876 17.4113C7.50812 17.5041 7.37861 17.6425 7.29663 17.8089C7.21465 17.9753 7.18388 18.1623 7.20821 18.3462C7.23255 18.5301 7.31089 18.7026 7.43333 18.842C7.55578 18.9813 7.71681 19.0812 7.89605 19.129C8.07529 19.1768 8.26469 19.1704 8.44026 19.1105C8.61583 19.0506 8.76969 18.94 8.88237 18.7926C8.99504 18.6452 9.06146 18.4678 9.07322 18.2826C9.08499 18.0975 9.04156 17.913 8.94844 17.7526C8.82326 17.5379 8.61826 17.3815 8.37818 17.3174C8.1381 17.2533 7.88241 17.2867 7.66688 17.4104L7.66876 17.4113ZM8.60626 10.0276C8.49946 9.96138 8.38044 9.9173 8.25627 9.89799C8.1321 9.87868 8.00531 9.88453 7.88345 9.9152C7.76158 9.94586 7.64713 10.0007 7.54688 10.0765C7.44664 10.1523 7.36265 10.2474 7.29991 10.3563C7.23717 10.4652 7.19696 10.5856 7.18168 10.7103C7.16639 10.835 7.17633 10.9616 7.21091 11.0824C7.24549 11.2032 7.30401 11.3158 7.38299 11.4135C7.46196 11.5113 7.55978 11.5922 7.67063 11.6513C7.88518 11.7639 8.13496 11.789 8.36761 11.7214C8.60026 11.6538 8.79771 11.4988 8.91857 11.2888C9.03944 11.0788 9.07433 10.8302 9.01593 10.5951C8.95753 10.36 8.81038 10.1566 8.60532 10.0276H8.60626ZM6.21001 14.5313C6.21026 14.7802 6.30936 15.0188 6.48553 15.1946C6.6617 15.3705 6.90049 15.4691 7.14938 15.4688C7.39827 15.4686 7.63687 15.3695 7.81268 15.1933C7.9885 15.0172 8.08713 14.7784 8.08688 14.5295C8.08663 14.2806 7.98752 14.042 7.81136 13.8662C7.63519 13.6904 7.3964 13.5917 7.14751 13.592C6.89862 13.5922 6.66002 13.6913 6.48421 13.8675C6.30839 14.0437 6.20976 14.2825 6.21001 14.5313ZM13.5947 21.916C13.5946 22.0393 13.6187 22.1613 13.6658 22.2752C13.7128 22.3891 13.7818 22.4927 13.8689 22.5799C13.9559 22.6671 14.0593 22.7363 14.1731 22.7836C14.287 22.8309 14.409 22.8553 14.5322 22.8554C14.6554 22.8555 14.7775 22.8314 14.8914 22.7843C15.0053 22.7373 15.1088 22.6683 15.196 22.5812C15.2833 22.4942 15.3525 22.3908 15.3998 22.277C15.4471 22.1632 15.4714 22.0411 15.4716 21.9179C15.4718 21.669 15.3732 21.4302 15.1974 21.2541C15.0216 21.0779 14.783 20.9788 14.5341 20.9785C14.2852 20.9783 14.0464 21.0769 13.8702 21.2527C13.6941 21.4286 13.5949 21.6671 13.5947 21.916ZM10.0284 20.4582C9.77063 20.9082 9.92532 21.4801 10.3716 21.7379C10.5321 21.8307 10.7167 21.8738 10.9017 21.8618C11.0868 21.8497 11.2642 21.783 11.4113 21.6701C11.5585 21.5573 11.6689 21.4033 11.7285 21.2276C11.7881 21.052 11.7943 20.8626 11.7463 20.6835C11.6982 20.5043 11.5981 20.3434 11.4586 20.2212C11.3192 20.099 11.1465 20.0208 10.9626 19.9967C10.7787 19.9726 10.5918 20.0036 10.4255 20.0857C10.2592 20.1679 10.121 20.2975 10.0284 20.4582ZM20.4591 10.0276C20.3482 10.0868 20.2504 10.1677 20.1714 10.2654C20.0925 10.3631 20.0339 10.4758 19.9994 10.5966C19.9648 10.7174 19.9548 10.8439 19.9701 10.9687C19.9854 11.0934 20.0256 11.2138 20.0884 11.3226C20.1511 11.4315 20.2351 11.5267 20.3353 11.6025C20.4356 11.6782 20.55 11.7331 20.6719 11.7638C20.7938 11.7944 20.9205 11.8003 21.0447 11.781C21.1689 11.7616 21.2879 11.7176 21.3947 11.6513C21.6016 11.5231 21.7504 11.3194 21.8098 11.0834C21.8692 10.8473 21.8345 10.5974 21.7129 10.3865C21.5914 10.1756 21.3927 10.0203 21.1587 9.95329C20.9247 9.88631 20.6738 9.91295 20.4591 10.0276ZM20.1159 17.7545C20.0534 17.8611 20.0126 17.9791 19.9959 18.1016C19.9791 18.2241 19.9868 18.3487 20.0184 18.4682C20.05 18.5878 20.1049 18.6999 20.18 18.7981C20.2551 18.8963 20.3489 18.9787 20.4559 19.0405C20.563 19.1023 20.6813 19.1424 20.8039 19.1583C20.9265 19.1742 21.051 19.1658 21.1703 19.1334C21.2897 19.101 21.4014 19.0453 21.4991 18.9695C21.5968 18.8938 21.6786 18.7995 21.7397 18.692C21.8621 18.4768 21.8943 18.2219 21.8295 17.983C21.7646 17.7441 21.6079 17.5405 21.3935 17.4167C21.1791 17.2929 20.9244 17.259 20.6851 17.3223C20.4457 17.3855 20.2411 17.5409 20.1159 17.7545ZM22.8553 14.5313C22.8553 14.0157 22.4353 13.5938 21.9178 13.5938C21.7324 13.5938 21.5511 13.6488 21.397 13.7518C21.2428 13.8549 21.1226 14.0013 21.0517 14.1726C20.9807 14.3439 20.9622 14.5324 20.9983 14.7142C21.0345 14.8961 21.1238 15.0631 21.2549 15.1943C21.386 15.3254 21.5531 15.4147 21.7349 15.4508C21.9168 15.487 22.1053 15.4684 22.2766 15.3975C22.4479 15.3265 22.5943 15.2064 22.6973 15.0522C22.8003 14.898 22.8553 14.7168 22.8553 14.5313ZM17.4131 21.3957C17.4747 21.5022 17.5566 21.5955 17.6542 21.6704C17.7519 21.7452 17.8633 21.8001 17.9821 21.8319C18.1009 21.8636 18.2249 21.8717 18.3468 21.8556C18.4688 21.8394 18.5863 21.7995 18.6928 21.7379C18.7993 21.6764 18.8926 21.5944 18.9675 21.4968C19.0423 21.3992 19.0972 21.2878 19.1289 21.1689C19.1607 21.0501 19.1688 20.9262 19.1527 20.8042C19.1365 20.6823 19.0966 20.5647 19.035 20.4582C18.9739 20.3507 18.8921 20.2564 18.7944 20.1807C18.6967 20.1049 18.585 20.0492 18.4657 20.0168C18.3463 19.9844 18.2218 19.976 18.0992 19.9919C17.9766 20.0078 17.8583 20.0479 17.7513 20.1097C17.6442 20.1715 17.5504 20.2539 17.4753 20.3521C17.4002 20.4503 17.3453 20.5624 17.3137 20.682C17.2821 20.8015 17.2744 20.9261 17.2912 21.0486C17.3079 21.1711 17.3487 21.2891 17.4113 21.3957H17.4131ZM17.7563 8.94947C17.9717 9.07342 18.2276 9.10671 18.4676 9.04201C18.7075 8.97731 18.912 8.81992 19.0359 8.60447C19.1599 8.38903 19.1932 8.13317 19.1285 7.89318C19.0638 7.65319 18.9064 7.44873 18.6909 7.32479C18.4762 7.21014 18.2254 7.18349 17.9914 7.25048C17.7574 7.31746 17.5586 7.47283 17.4371 7.68372C17.3155 7.89461 17.2808 8.1445 17.3402 8.38054C17.3996 8.61658 17.5485 8.82027 17.7553 8.94854L17.7563 8.94947ZM26.9091 13.4663C26.3184 6.6301 20.2997 1.56572 13.4653 2.15072C10.5368 2.40405 7.79456 3.69308 5.73094 5.78635L4.06969 4.38947L2.84344 11.2923L9.43407 8.90354L7.90126 7.6126C9.47451 6.0868 11.525 5.14897 13.7081 4.95666C16.2468 4.74098 18.7674 5.54135 20.7166 7.18211C22.6658 8.82286 23.8845 11.1699 24.105 13.7082C24.3207 16.2466 23.5206 18.7669 21.8802 20.7161C20.2399 22.6653 17.8933 23.8841 15.3553 24.1051C10.065 24.5513 5.41782 20.642 4.95657 15.3554C4.86094 14.2257 4.97532 13.1298 5.24719 12.0929L2.18157 13.2057C2.09719 13.9857 2.08219 14.7845 2.15344 15.5963C2.74219 22.4307 8.76001 27.4932 15.5972 26.9082C22.4316 26.3176 27.4969 20.3007 26.9109 13.4645L26.9091 13.4663Z" fill="#068CEF"/>
</svg>
