<svg width="28" height="28" viewBox="0 0 28 28" fill="none" xmlns="http://www.w3.org/2000/svg">
<path d="M7.75 7.3375C6.4175 7.3375 5.15 7.1875 4 6.92C2.8 6.63875 1.5 7.5025 1.5 8.76125V22.5225C1.5 23.5325 1.5 24.0375 1.7425 24.5588C1.88 24.8563 2.19625 25.26 2.44875 25.4637C2.89125 25.8225 3.26125 25.9088 4 26.0813C5.15 26.3513 6.4175 26.5 7.75 26.5C10.1463 26.5 12.335 26.0175 14 25.2225C15.665 24.4275 17.8537 23.945 20.25 23.945C21.5825 23.945 22.85 24.095 24 24.3638C25.2 24.6438 26.5 23.78 26.5 22.5212V8.7625C26.5 7.75125 26.5 7.24625 26.2575 6.725C26.0825 6.38068 25.8427 6.07339 25.5512 5.82C24 4.54875 21.5 5.8025 21.5 5.8025" stroke="white" stroke-width="1.5" stroke-linecap="round" stroke-linejoin="round"/>
<path d="M5.875 17.125V17.1362M22.125 14.615V14.6275M10.875 4.625C11.49 3.9925 13.125 1.5 14 1.5M14 1.5C14.875 1.5 16.51 3.9925 17.125 4.625M14 1.5V9M17.125 15.875C17.125 16.7038 16.7958 17.4987 16.2097 18.0847C15.6237 18.6708 14.8288 19 14 19C13.1712 19 12.3763 18.6708 11.7903 18.0847C11.2042 17.4987 10.875 16.7038 10.875 15.875C10.875 15.0462 11.2042 14.2513 11.7903 13.6653C12.3763 13.0792 13.1712 12.75 14 12.75C14.8288 12.75 15.6237 13.0792 16.2097 13.6653C16.7958 14.2513 17.125 15.0462 17.125 15.875Z" stroke="white" stroke-width="1.5" stroke-linecap="round" stroke-linejoin="round"/>
</svg>
