<svg width="28" height="27" viewBox="0 0 28 27" fill="none" xmlns="http://www.w3.org/2000/svg">
<path fill-rule="evenodd" clip-rule="evenodd" d="M7.74997 0.1875C7.99861 0.1875 8.23707 0.286272 8.41288 0.462087C8.5887 0.637903 8.68747 0.87636 8.68747 1.125V2.07875C9.51497 2.0625 10.4262 2.0625 11.4287 2.0625H16.57C17.5737 2.0625 18.485 2.0625 19.3125 2.07875V1.125C19.3125 0.87636 19.4112 0.637903 19.5871 0.462087C19.7629 0.286272 20.0013 0.1875 20.25 0.1875C20.4986 0.1875 20.7371 0.286272 20.9129 0.462087C21.0887 0.637903 21.1875 0.87636 21.1875 1.125V2.15875C21.5125 2.18375 21.8204 2.21542 22.1112 2.25375C23.5762 2.45125 24.7625 2.86625 25.6987 3.80125C26.6337 4.7375 27.0487 5.92375 27.2462 7.38875C27.4375 8.81375 27.4375 10.6325 27.4375 12.93V15.57C27.4375 17.8675 27.4375 19.6875 27.2462 21.1112C27.0487 22.5763 26.6337 23.7625 25.6987 24.6987C24.7625 25.6337 23.5762 26.0487 22.1112 26.2463C20.6862 26.4375 18.8675 26.4375 16.57 26.4375H11.4312C9.13372 26.4375 7.31372 26.4375 5.88997 26.2463C4.42497 26.0487 3.23872 25.6337 2.30247 24.6987C1.36747 23.7625 0.952471 22.5763 0.754971 21.1112C0.563721 19.6863 0.563721 17.8675 0.563721 15.57V12.93C0.563721 10.6325 0.563721 8.8125 0.754971 7.38875C0.952471 5.92375 1.36747 4.7375 2.30247 3.80125C3.23872 2.86625 4.42497 2.45125 5.88997 2.25375C6.18164 2.21542 6.48955 2.18375 6.81372 2.15875V1.125C6.81372 0.876576 6.91232 0.638308 7.08787 0.462529C7.26341 0.286749 7.50155 0.187831 7.74997 0.1875ZM6.13747 4.1125C4.88122 4.28125 4.15622 4.59875 3.62747 5.1275C3.09872 5.65625 2.78122 6.38125 2.61247 7.6375C2.58414 7.85 2.55997 8.07458 2.53997 8.31125H25.46C25.44 8.07458 25.4158 7.84958 25.3875 7.63625C25.2187 6.38 24.9012 5.655 24.3725 5.12625C23.8437 4.5975 23.1187 4.28 21.8612 4.11125C20.5775 3.93875 18.8837 3.93625 16.5 3.93625H11.5C9.11622 3.93625 7.42372 3.94 6.13747 4.1125ZM2.43747 13C2.43747 11.9325 2.43747 11.0037 2.45372 10.1875H25.5462C25.5625 11.0037 25.5625 11.9325 25.5625 13V15.5C25.5625 17.8837 25.56 19.5775 25.3875 20.8625C25.2187 22.1188 24.9012 22.8438 24.3725 23.3725C23.8437 23.9013 23.1187 24.2188 21.8612 24.3875C20.5775 24.56 18.8837 24.5625 16.5 24.5625H11.5C9.11622 24.5625 7.42372 24.56 6.13747 24.3875C4.88122 24.2188 4.15622 23.9013 3.62747 23.3725C3.09872 22.8438 2.78122 22.1187 2.61247 20.8612C2.43997 19.5775 2.43747 17.8837 2.43747 15.5V13Z" fill="#068CEF"/>
</svg>
